<?xml version="1.0" standalone="no"?>
<!DOCTYPE svg PUBLIC "-//W3C//DTD SVG 20010904//EN"
 "http://www.w3.org/TR/2001/REC-SVG-20010904/DTD/svg10.dtd">
<svg version="1.0" xmlns="http://www.w3.org/2000/svg"
 width="89.000000pt" height="89.000000pt" viewBox="0 0 89.000000 89.000000"
 preserveAspectRatio="xMidYMid meet">

<g transform="translate(0.000000,89.000000) scale(0.100000,-0.100000)"
fill="#000000" stroke="none">
<path d="M362 860 c-220 -47 -372 -267 -335 -486 56 -328 450 -471 697 -253
26 23 60 60 76 83 36 53 70 153 70 206 l0 40 -170 0 c-144 0 -170 -2 -170 -15
0 -13 23 -15 148 -15 82 0 151 -2 154 -5 10 -10 -12 -95 -38 -150 -33 -66
-116 -148 -179 -176 -56 -25 -149 -41 -192 -33 l-33 6 0 182 0 181 29 -52 c26
-48 152 -205 159 -198 2 1 -11 26 -28 55 -106 179 -108 291 -9 405 l34 39 -40
-23 c-51 -31 -102 -78 -126 -116 l-19 -30 0 38 c0 24 5 37 13 37 21 0 47 34
47 62 0 25 -27 58 -48 58 -8 0 -12 21 -12 60 0 56 2 60 26 66 97 25 288 -58
341 -147 16 -26 53 -41 53 -20 0 18 -68 93 -115 126 -94 67 -228 97 -333 75z
m28 -220 c0 -64 -9 -73 -42 -43 -22 20 -23 61 -1 85 31 34 43 23 43 -42z
m-110 -10 c164 -111 146 -216 -76 -459 -7 -8 13 36 44 98 54 106 57 117 57
184 0 78 -22 136 -73 190 -36 38 -21 34 48 -13z"/>
</g>
</svg>
